<svg version="1.1" id="Layer_1" xmlns="http://www.w3.org/2000/svg" xmlns:xlink="http://www.w3.org/1999/xlink" x="0px" y="0px"
	 width="100%" viewBox="0 0 1024 1024" enable-background="new 0 0 1024 1024" xml:space="preserve">
<path fill="#000000" opacity="1.000000" stroke="none" 
	d="
M94.962242,474.720825 
	C92.535637,456.704773 90.003334,439.134888 87.976143,421.506958 
	C86.552757,409.129578 85.570297,396.687958 84.822632,384.249054 
	C82.793770,350.494904 81.769928,316.691681 82.212646,282.886871 
	C82.607277,252.753479 83.940132,222.632080 84.910454,192.507034 
	C85.006714,189.518463 85.262100,186.505341 85.793167,183.566772 
	C86.827751,177.841888 90.692139,174.929947 96.055550,173.205750 
	C122.352890,164.751877 148.656189,156.309814 174.853333,147.552322 
	C228.232697,129.708084 280.956055,110.044243 333.252991,89.268562 
	C387.883240,67.565933 442.359436,45.473217 496.799835,23.297867 
	C504.337463,20.227547 511.072327,20.501871 518.427979,23.527285 
	C572.017273,45.568893 625.802856,67.119926 679.821411,88.095642 
	C733.054504,108.766319 786.725464,128.220932 840.714783,146.801956 
	C867.462341,156.007462 894.345520,164.818863 921.168884,173.804138 
	C926.549255,175.606430 929.513428,179.065933 930.490845,184.909485 
	C932.013428,194.012039 931.359070,203.182602 932.015259,212.305496 
	C933.148804,228.065674 933.004883,243.919388 933.336243,259.735138 
	C933.639771,274.223694 934.229980,288.718811 934.037476,303.202301 
	C933.734192,326.008728 933.478027,348.843323 932.125610,371.602051 
	C929.868774,409.579376 926.827637,447.508270 920.307617,485.064484 
	C908.177856,554.934509 885.489685,620.974487 848.713135,681.839905 
	C820.523010,728.494751 785.912659,769.933411 746.073547,807.096008 
	C704.868286,845.532959 660.160339,879.334961 612.131287,908.741516 
	C581.710083,927.367371 550.125610,943.910828 518.469604,960.313416 
	C512.679016,963.313843 507.231110,963.298706 501.337952,960.347351 
	C440.586975,929.922180 382.051636,895.908325 328.014435,854.478821 
	C268.829498,809.102600 217.039047,756.784058 176.384506,693.927490 
	C146.750000,648.109131 125.395164,598.628906 110.697281,546.152832 
	C104.146423,522.764221 99.227715,499.043915 94.962242,474.720825 
M834.098328,642.651367 
	C855.255859,603.445251 870.177979,561.887085 880.794312,518.711975 
	C888.022156,489.317444 892.499268,459.478241 895.831482,429.404785 
	C898.102600,408.907837 899.856079,388.349182 900.386292,367.800812 
	C901.047485,342.171417 901.963562,316.516449 901.198059,290.845123 
	C900.378906,263.373871 900.107544,235.886078 899.641968,208.404724 
	C899.575500,204.480530 898.881775,201.753372 894.281372,200.247040 
	C832.266357,179.940979 770.819214,157.988663 709.715454,135.115204 
	C643.763306,110.426849 578.288879,84.492332 513.361145,57.204563 
	C509.557465,55.605946 506.266510,55.597160 502.411407,57.198170 
	C472.427826,69.650345 442.443542,82.107910 412.306793,94.182724 
	C349.717957,119.260033 286.966980,143.932266 223.317368,166.222076 
	C190.178116,177.827301 156.915894,189.084930 123.403023,199.582596 
	C120.261948,200.566513 117.535324,201.318237 117.109093,205.925659 
	C115.787048,220.216385 115.821259,234.571854 115.645554,248.841003 
	C115.198540,285.141327 114.548668,321.458588 116.076004,357.773163 
	C116.956909,378.717957 118.281189,399.603699 120.167366,420.478088 
	C122.756355,449.130432 127.252602,477.460815 133.373962,505.553345 
	C146.464325,565.628357 168.445938,622.132080 201.554535,674.077087 
	C241.084915,736.097473 291.981110,787.466980 350.343628,831.738953 
	C398.020813,867.905273 449.601654,897.746155 502.432678,925.580688 
	C507.624786,928.316284 511.814331,928.109924 516.876648,925.438416 
	C561.711792,901.777771 605.607727,876.575562 646.853088,846.984741 
	C689.086731,816.684937 728.484192,783.177490 762.915039,744.064087 
	C790.207886,713.059387 814.228455,679.766235 834.098328,642.651367 
z"/>
<path fill="#000000" opacity="1.000000" stroke="none" 
	d="
M822.295044,305.370392 
	C837.477051,311.554688 842.962280,323.678192 843.122681,338.501770 
	C843.445190,368.320099 843.366821,398.145416 843.162781,427.965851 
	C843.023071,448.384949 832.589355,461.792908 814.338318,465.775360 
	C812.569824,466.161255 810.714172,466.297150 808.898926,466.297913 
	C752.920471,466.321594 696.942017,466.355560 640.963684,466.285126 
	C624.574951,466.264496 611.022339,455.415100 607.251404,439.590088 
	C606.832581,437.832275 606.674500,435.973297 606.672729,434.160950 
	C606.640930,400.840454 606.614807,367.519897 606.669434,334.199463 
	C606.694580,318.863007 618.474121,305.483795 633.641602,303.760223 
	C637.123047,303.364594 637.592163,301.658722 637.669373,298.841064 
	C637.937927,289.042755 637.008850,279.228455 638.619873,269.444946 
	C644.862305,231.535980 670.861206,203.611328 704.341858,196.631699 
	C751.555298,186.789200 796.366394,214.970612 808.275940,261.697113 
	C811.228027,273.279663 811.666443,285.019073 811.284973,296.832031 
	C811.143616,301.210846 811.497437,304.419250 817.161255,303.875824 
	C818.693359,303.728851 820.336121,304.735382 822.295044,305.370392 
M673.937927,303.648102 
	C690.581482,303.655212 707.225098,303.666962 723.868652,303.668091 
	C740.345825,303.669220 756.822998,303.677917 773.300049,303.633087 
	C775.508362,303.627075 778.550049,304.317200 778.559814,300.759308 
	C778.591187,289.318054 779.927490,277.724823 776.307739,266.575073 
	C769.323425,245.061386 749.020569,226.389435 721.125671,227.213028 
	C696.699707,227.934204 671.508484,251.409775 670.339478,275.844727 
	C669.966003,283.650238 670.210022,291.485718 670.193237,299.307556 
	C670.188843,301.352203 670.150574,303.473511 673.937927,303.648102 
M746.105469,386.565948 
	C750.494019,380.118164 752.553162,373.302765 750.694092,365.362366 
	C747.636108,352.301270 733.571411,342.375549 721.103027,344.867432 
	C709.791504,347.128082 702.081482,353.530029 699.140564,364.808289 
	C696.294678,375.721863 699.879211,384.843414 708.249817,392.077148 
	C710.510620,394.030853 711.365295,396.075348 711.314453,398.971069 
	C711.185913,406.301758 711.215515,413.638031 711.337036,420.969452 
	C711.450928,427.841339 717.312927,433.497162 724.241821,433.636322 
	C731.181030,433.775696 737.295349,428.305206 737.615295,421.414917 
	C737.823853,416.924225 738.080933,412.372040 737.594055,407.926483 
	C736.667969,399.471252 738.078613,392.169586 746.105469,386.565948 
z"/>
<path fill="#000000" opacity="1.000000" stroke="none" 
	d="
M398.170471,783.283936 
	C386.781708,790.732971 375.139709,791.915466 363.397614,785.629150 
	C351.977875,779.515320 346.382935,769.572937 346.681976,756.552490 
	C347.056213,740.258911 364.333466,724.987000 380.881409,727.612427 
	C389.324158,728.951904 394.805817,727.099976 399.113007,720.121094 
	C405.385376,709.957947 414.591187,706.425537 426.310211,707.613403 
	C432.742310,708.265381 439.297546,707.703064 445.797272,707.686584 
	C447.654388,707.681946 449.533691,707.747986 450.388763,705.552185 
	C451.236084,703.376343 449.902649,702.157288 448.486481,700.885742 
	C443.479675,696.390137 439.242340,691.269470 436.358551,685.153809 
	C435.274963,682.855896 433.628906,682.090576 431.205933,682.098267 
	C409.707062,682.166443 388.207550,682.249207 366.709381,682.127014 
	C363.226166,682.107178 362.320374,684.077576 361.159485,686.633057 
	C355.161316,699.837097 343.049744,706.426697 327.260651,705.261597 
	C315.069916,704.362000 303.814178,694.580933 300.280090,681.815918 
	C295.840210,665.779358 303.967438,649.243225 319.381409,642.951233 
	C335.076630,636.544434 352.096832,642.362000 360.225769,657.127747 
	C361.626099,659.671326 363.169525,660.702332 366.050629,660.686707 
	C385.215973,660.582458 404.382935,660.525391 423.547302,660.690796 
	C427.709045,660.726746 429.069458,659.385376 428.869354,655.231750 
	C428.101440,639.295166 430.434967,624.003357 439.221710,610.232300 
	C439.400665,609.951843 439.481812,609.569702 439.721771,609.373169 
	C448.349060,602.305054 448.728424,592.502014 449.804535,582.357422 
	C452.439484,557.518066 467.061920,541.389099 489.925446,532.928955 
	C497.276947,530.208740 502.007294,527.174561 505.779022,519.552795 
	C514.114807,502.707886 529.766479,494.982117 547.826660,491.642151 
	C563.223877,488.794678 576.855225,492.249023 588.438660,502.209229 
	C589.995483,502.440735 590.733154,501.698303 591.479736,501.059448 
	C602.520813,491.611938 615.163269,488.779053 629.251465,491.876312 
	C645.375305,495.421082 659.259827,502.732208 669.476807,516.056213 
	C671.286011,518.415466 673.533081,520.980774 673.996338,523.718628 
	C674.993164,529.609009 678.843323,530.682556 683.700745,531.750000 
	C709.169922,537.346924 727.610962,560.205200 727.191711,586.253784 
	C727.059204,594.485046 728.235657,600.822388 734.600098,607.195679 
	C744.318848,616.927979 747.734131,630.118835 748.284607,643.770325 
	C748.686768,653.745300 748.533020,663.668701 745.475403,673.418701 
	C742.250916,683.700867 737.058044,692.673645 729.120667,699.850586 
	C726.325073,702.378357 725.833008,704.568359 726.666260,708.034180 
	C733.415283,736.105591 718.691284,765.596985 693.001465,775.854858 
	C688.474243,777.662598 683.738281,778.610657 678.948364,779.125244 
	C676.373840,779.401855 674.685669,780.203430 673.458862,782.585205 
	C661.343750,806.104126 622.387268,820.855225 594.018921,797.267334 
	C590.558105,794.389648 588.293396,794.480652 584.613586,797.029968 
	C565.719971,810.119324 545.702698,812.494690 524.734253,802.121399 
	C515.864807,797.733582 508.787231,791.255249 503.521057,782.914612 
	C502.129761,780.710999 500.599091,779.630798 498.027557,779.335754 
	C473.030701,776.467529 454.730682,760.075256 449.810089,735.626465 
	C448.780884,730.512817 446.994171,728.353455 441.719940,729.102722 
	C438.610443,729.544434 435.266327,729.858948 432.254883,729.197083 
	C420.525360,726.619385 414.729065,734.533508 408.485504,741.939148 
	C406.721252,744.031799 407.637482,745.920410 408.295044,747.993713 
	C412.680267,761.820496 409.428833,773.533203 398.170471,783.283936 
M476.583069,741.871887 
	C478.280640,743.920410 479.780975,746.180603 481.711670,747.978821 
	C488.285004,754.101135 496.058380,758.055847 505.135712,757.087402 
	C514.485107,756.090088 518.238342,757.574524 522.175415,766.142700 
	C528.366943,779.617249 540.132385,786.620361 554.955444,785.654358 
	C568.785950,784.752991 577.238525,775.684814 577.092346,761.905701 
	C577.064087,759.239258 577.015747,756.572754 577.014038,753.906311 
	C576.966309,680.573608 576.931030,607.240845 576.872375,533.908142 
	C576.862244,521.259216 569.054443,513.335815 556.388062,512.994080 
	C539.549500,512.539673 524.997070,524.651428 522.901184,541.325134 
	C522.183167,547.037354 519.152283,549.719055 514.040649,551.344666 
	C510.764709,552.386536 507.478241,551.543762 504.236267,552.328796 
	C477.645691,558.767029 466.259460,579.551392 475.400055,605.116333 
	C477.297241,610.422546 476.242737,613.541138 471.381561,616.506592 
	C469.826904,617.454956 468.171600,618.362488 466.439758,618.872009 
	C461.943268,620.195129 459.299133,623.342651 456.944305,627.178467 
	C451.029999,636.812317 449.994843,647.440430 451.637695,658.071899 
	C453.699066,671.411926 458.326965,683.642090 472.459686,689.291443 
	C476.049896,690.726562 477.571899,693.550598 477.432556,697.628784 
	C477.262360,702.608887 475.437653,707.049866 473.786499,711.552551 
	C470.005920,721.862244 470.457123,731.746643 476.583069,741.871887 
M703.476990,735.888733 
	C708.584290,725.502869 706.916870,715.604004 701.522766,705.857971 
	C696.348450,696.509216 697.663391,691.913452 707.325989,687.739319 
	C715.130981,684.367676 719.770203,678.549805 722.694641,670.951904 
	C726.670776,660.621460 728.270630,649.936829 725.450928,639.163513 
	C723.329895,631.059692 721.320618,622.568481 711.441345,619.529053 
	C701.318665,616.414612 699.446960,611.667847 703.583252,601.644958 
	C711.486572,582.494080 699.203918,558.719849 679.014343,554.009644 
	C677.518311,553.660645 676.226135,553.454346 674.687805,554.084961 
	C661.539978,559.474182 653.811646,554.473511 653.759644,540.364990 
	C653.740601,535.193726 652.060608,530.885498 648.652893,527.227722 
	C642.253235,520.358643 634.567566,515.535889 625.286255,513.655518 
	C612.446777,511.054260 600.353699,519.977356 600.378601,532.198914 
	C600.535461,609.183594 599.768982,686.171143 601.030762,763.152588 
	C601.198303,773.372864 606.432495,780.936462 616.024536,784.499817 
	C631.183228,790.131104 651.030518,782.326416 654.939819,765.267578 
	C656.445374,758.698059 661.229370,755.376465 666.729675,755.933594 
	C683.705444,757.653076 694.773071,751.759827 703.476990,735.888733 
M342.465027,668.193665 
	C341.917664,667.362061 341.456268,666.455811 340.808990,665.710999 
	C336.470947,660.719238 330.352112,659.822021 325.181244,663.372009 
	C320.536133,666.561035 318.803406,673.176758 321.355103,677.980591 
	C324.217041,683.368469 330.601227,685.601196 336.338379,683.220642 
	C342.107269,680.826904 344.568665,675.303711 342.465027,668.193665 
M388.612885,754.961731 
	C387.753510,753.754211 387.064362,752.365173 386.004486,751.371521 
	C381.991425,747.608704 376.498260,747.387207 372.375610,750.663574 
	C368.230682,753.957642 367.176666,759.285217 369.824036,763.561157 
	C372.432922,767.775146 377.882660,769.623718 382.403564,767.828369 
	C388.000854,765.605530 390.191620,761.466980 388.612885,754.961731 
z"/>
<path fill="#000000" opacity="1.000000" stroke="none" 
	d="
M434.000885,385.994568 
	C423.342773,396.321533 412.949310,406.408264 402.537811,416.476288 
	C398.251434,420.621246 395.156433,420.742767 390.883240,416.765411 
	C386.984589,413.136780 383.158234,409.424011 379.426300,405.624298 
	C374.786377,400.900146 374.734802,399.124786 379.491394,394.429230 
	C392.523560,381.564453 405.756256,368.901825 418.719818,355.968964 
	C425.071747,349.632111 431.002441,342.873047 437.617523,335.775146 
	C432.867432,330.906555 427.439240,325.156860 421.810333,319.610809 
	C408.528259,306.524139 395.158722,293.526154 381.808258,280.509033 
	C375.223816,274.089020 375.200562,271.900543 381.849121,265.466675 
	C384.839722,262.572662 387.823242,259.665985 390.923157,256.891510 
	C395.884491,252.450989 398.569550,252.481506 403.346161,257.125336 
	C414.805237,268.265778 426.191101,279.481476 437.624481,290.648407 
	C450.844177,303.560059 464.094482,316.440369 477.308960,329.357330 
	C483.703705,335.608154 483.771759,337.784393 477.323212,344.071136 
	C463.019623,358.015747 448.619232,371.861053 434.000885,385.994568 
z"/>
<path fill="#000000" opacity="1.000000" stroke="none" 
	d="
M187.762543,329.966522 
	C212.957214,305.386230 237.882187,281.062714 262.870056,256.803986 
	C267.265381,252.536926 269.880249,252.575668 274.528076,256.733215 
	C278.376160,260.175415 282.129639,263.732788 285.780914,267.383209 
	C290.507507,272.108643 290.542297,274.365417 285.744476,279.093048 
	C272.095215,292.542572 258.322968,305.867249 244.663834,319.306824 
	C238.985764,324.893646 233.471893,330.647278 227.320206,336.897247 
	C232.572540,342.033783 237.690674,346.990967 242.755829,352.001770 
	C256.734314,365.830139 270.727692,379.643799 284.636688,393.541870 
	C289.923035,398.824036 289.825348,401.255402 284.587769,406.476868 
	C281.519257,409.535919 278.417786,412.562103 275.313812,415.585327 
	C270.005127,420.755859 267.466339,420.875275 262.257507,415.753265 
	C246.215836,399.978912 230.246811,384.130707 214.253876,368.306824 
	C205.369598,359.516388 196.409470,350.800293 187.650665,341.886475 
	C183.368439,337.528442 183.521393,335.038330 187.762543,329.966522 
z"/>
<path fill="#000000" opacity="1.000000" stroke="none" 
	d="
M338.046387,337.778839 
	C331.087128,368.445007 324.216248,398.701965 317.354980,428.961121 
	C315.936951,435.214722 314.581940,436.348206 308.209381,436.378479 
	C303.880768,436.399048 299.551666,436.392792 295.223206,436.351685 
	C288.153259,436.284576 286.575867,434.343109 288.123871,427.529999 
	C290.439056,417.340485 292.854889,407.173706 295.145477,396.978729 
	C306.348175,347.116760 317.519928,297.247803 328.722107,247.385712 
	C329.158081,245.445145 329.901825,243.572250 330.312286,241.627747 
	C331.238922,237.237991 334.173004,235.607635 338.308502,235.778015 
	C343.787994,236.003738 349.272888,236.262390 354.732056,236.762436 
	C358.778839,237.133102 360.293396,240.490173 359.011230,246.162888 
	C357.365326,253.444931 355.469086,260.670288 353.814117,267.950439 
	C348.555542,291.082855 343.358856,314.229370 338.046387,337.778839 
z"/>
<path fill="#000000" opacity="1.000000" stroke="none" 
	d="
M294.854980,561.069092 
	C296.347229,546.312683 303.137634,535.791931 317.029327,530.864441 
	C330.031403,526.252441 341.735474,529.133057 351.403839,538.795349 
	C361.035889,548.421204 363.236755,560.331909 358.775574,572.853760 
	C356.964874,577.936157 357.944702,580.608215 361.459839,583.888245 
	C368.760529,590.700684 375.819763,597.777222 382.838531,604.883179 
	C384.998230,607.069702 387.270569,607.998840 390.345978,607.922791 
	C399.166138,607.704407 407.992706,607.689758 416.816681,607.695129 
	C424.264343,607.699707 429.227875,611.764587 429.307037,617.752136 
	C429.385651,623.697021 424.345886,628.195801 417.160645,628.260742 
	C405.007080,628.370605 392.851196,628.232300 380.697937,628.357910 
	C377.412109,628.391846 375.008148,627.135498 372.781494,624.887512 
	C363.175140,615.189514 353.437683,605.620728 343.887085,595.868652 
	C341.361053,593.289246 339.129883,592.108093 335.210358,593.072021 
	C316.497040,597.674377 296.429962,585.550232 294.854980,561.069092 
M325.350739,550.691040 
	C324.018127,551.369324 322.564819,551.882629 321.373749,552.754333 
	C315.983276,556.699097 315.100525,563.841309 319.271851,568.987427 
	C323.446838,574.138062 330.610809,574.751648 335.643280,570.389587 
	C339.224731,567.285217 340.386108,562.254211 338.579773,557.668823 
	C336.714630,552.934204 332.352844,550.428650 325.350739,550.691040 
z"/>
<path fill="#000000" opacity="1.000000" stroke="none" 
	d="
M476.276306,638.926636 
	C479.453735,637.796570 482.244232,636.856567 485.289429,636.607178 
	C495.344299,635.783752 502.347900,628.207703 502.715515,618.108826 
	C502.945068,611.802979 502.496338,605.508606 503.262756,599.179565 
	C504.744110,586.946167 512.371094,580.485657 523.183105,576.748047 
	C525.689453,575.881592 528.292297,575.268188 530.882019,574.675110 
	C534.710754,573.798462 537.428040,571.555298 539.295471,568.184082 
	C539.778748,567.311707 540.180847,566.394653 540.651672,565.514954 
	C543.827820,559.580688 548.221863,557.331116 553.108704,559.126160 
	C557.732422,560.824524 560.795410,567.304871 559.607727,572.876099 
	C557.316284,583.625000 547.185120,593.163940 535.941406,595.158997 
	C526.320923,596.866028 524.429565,599.324036 524.599731,609.227722 
	C524.722534,616.375061 524.592834,623.535889 522.343933,630.438354 
	C518.217712,643.102661 510.578125,652.304504 497.144989,655.663818 
	C492.801941,656.749878 488.444427,657.808350 484.049561,658.649841 
	C477.538483,659.896545 471.690247,657.197205 469.784088,652.287292 
	C467.905914,647.449463 469.852448,643.263611 476.276306,638.926636 
z"/>
<path fill="#000000" opacity="1.000000" stroke="none" 
	d="
M494.137390,730.163086 
	C493.179047,722.146118 494.478394,720.059204 501.602142,717.512939 
	C509.628540,714.644104 513.601929,708.885681 513.595032,699.387024 
	C513.589966,692.362915 513.812073,685.505615 516.837097,678.927368 
	C519.930237,672.200867 525.044373,667.755432 531.471375,664.543823 
	C535.546509,662.507446 538.541504,659.821228 538.962646,654.811340 
	C539.322937,650.525208 541.245178,647.181641 546.133484,646.568054 
	C551.260315,645.924438 555.716736,647.939270 557.776611,652.407959 
	C561.546997,660.587769 558.505920,667.653564 553.586182,674.178955 
	C551.061035,677.528259 547.829590,680.334961 544.008789,682.035217 
	C536.513062,685.370728 533.956482,691.379517 534.383728,698.963501 
	C535.029114,710.420532 532.676270,720.763123 524.305298,729.169373 
	C519.576050,733.918579 514.199036,737.184570 507.238464,737.337952 
	C501.611450,737.461792 497.177338,735.552124 494.137390,730.163086 
z"/>
<path fill="#000000" opacity="1.000000" stroke="none" 
	d="
M629.571838,640.333069 
	C622.907532,631.808228 621.986938,621.963257 621.846924,612.136047 
	C621.666809,599.495483 622.884521,586.869324 622.779175,574.203857 
	C622.721191,567.238647 628.025330,561.818726 633.930786,561.712585 
	C639.861084,561.606079 643.309082,564.847778 643.328491,570.788330 
	C643.377380,585.780457 643.316284,600.773010 643.349976,615.765259 
	C643.371643,625.421814 647.224365,630.956848 656.772644,632.752747 
	C673.110901,635.825623 686.474121,650.992859 685.257629,669.037537 
	C685.000977,672.843811 686.620911,676.186707 687.482422,679.719666 
	C688.800903,685.126587 687.055420,689.316284 682.564453,691.423523 
	C677.675598,693.717468 672.281738,692.486450 669.225464,688.179382 
	C665.830139,683.394592 664.661438,677.938843 664.664795,672.130005 
	C664.672302,659.124390 661.855286,655.614319 649.128662,652.290894 
	C641.546265,650.310852 634.838379,646.832458 629.571838,640.333069 
z"/>
<path fill="#000000" opacity="1.000000" stroke="none" 
	d="
M620.704285,682.395752 
	C622.210693,675.585632 625.575867,672.604736 631.160278,672.695435 
	C636.998108,672.790222 639.977356,675.719116 641.380127,682.227600 
	C642.482239,687.341064 642.282837,692.488586 642.333313,697.639893 
	C642.467957,711.393738 648.466492,717.830200 662.002197,718.707275 
	C670.867859,719.281799 677.582520,723.555115 679.544739,729.575256 
	C680.833862,733.530640 679.793335,736.881958 677.179565,739.702820 
	C674.514221,742.579285 670.998352,743.934143 667.209839,742.314758 
	C662.400879,740.259155 657.406494,739.681946 652.301575,738.892151 
	C635.469055,736.288147 622.560181,721.373474 621.662842,704.260559 
	C621.288635,697.124390 621.013550,689.982910 620.704285,682.395752 
z"/>
<path fill="#000000" opacity="1.000000" stroke="none" 
	d="
M662.170776,604.788330 
	C665.333679,599.777161 668.715027,598.417236 673.746155,600.228271 
	C679.057800,602.140198 684.430298,604.005249 689.481018,606.490662 
	C696.661987,610.024231 702.041321,615.210388 702.345093,623.980530 
	C702.471863,627.642273 701.184021,630.575134 697.851318,632.223083 
	C694.341003,633.958862 690.282959,634.407532 687.544373,631.526001 
	C682.158936,625.859680 675.509888,623.076721 668.351685,620.595703 
	C662.079041,618.421631 660.959961,614.761292 662.170776,604.788330 
z"/>
</svg>